<?xml version="1.0" encoding="utf-8"?>
<!-- Generator: Adobe Illustrator 22.0.1, SVG Export Plug-In . SVG Version: 6.00 Build 0)  -->
<svg version="1.1" id="Layer_1" xmlns="http://www.w3.org/2000/svg" xmlns:xlink="http://www.w3.org/1999/xlink" x="0px" y="0px"
	 viewBox="0 0 20 19.5" style="enable-background:new 0 0 20 19.5;" xml:space="preserve">
<style type="text/css">
	.st0{fill:#FFFFFF;}
</style>
<g>
	<g id="_x33__1_">
		<g>
			<path class="st0" d="M19.6,1.7l-2.7-1.6c-0.5-0.3-1.2,0.1-1.2,0.7v1h-7C7.8,1.8,7,2.5,7,3.4v12.2c0,0.3,0.3,0.6,0.6,0.6
				c0.3,0,0.6-0.3,0.6-0.6V3.4C8.2,3.2,8.4,3,8.7,3h7v1c0,0.6,0.7,1,1.2,0.7l2.7-1.6C20.1,2.8,20.1,2,19.6,1.7z M17.4,8.4
				c-0.3,0-0.6,0.3-0.6,0.6v8.3c0,0.5-0.4,1-1,1H2.2c-0.5,0-1-0.4-1-1V3.7c0-0.5,0.4-1,1-1h2.1c0.3,0,0.6-0.3,0.6-0.6
				S4.6,1.5,4.3,1.5H2.2C1,1.5,0,2.5,0,3.7v13.6c0,1.2,1,2.2,2.2,2.2h13.6c1.2,0,2.2-1,2.2-2.2V9C18,8.7,17.7,8.4,17.4,8.4z"/>
		</g>
	</g>
</g>
</svg>
