<?xml version="1.0" encoding="utf-8"?>
<!-- Generator: Adobe Illustrator 22.0.1, SVG Export Plug-In . SVG Version: 6.00 Build 0)  -->
<svg version="1.1" id="Layer_1" xmlns="http://www.w3.org/2000/svg" xmlns:xlink="http://www.w3.org/1999/xlink" x="0px" y="0px"
	 viewBox="0 0 20 18" style="enable-background:new 0 0 20 18;" xml:space="preserve">
<style type="text/css">
	.st0{fill:#FFFFFF;}
</style>
<g>
	<g>
		<g>
			<path class="st0" d="M19.8,7.1l-9.5-7C10.1,0,9.9,0,9.7,0.1l-9.5,7C0,7.3-0.1,7.6,0.1,7.8C0.3,8.1,0.6,8.1,0.8,8L10,1.2L19.2,8
				c0.1,0.1,0.2,0.1,0.3,0.1c0.2,0,0.3-0.1,0.4-0.2C20.1,7.6,20,7.3,19.8,7.1z"/>
		</g>
	</g>
	<g>
		<g>
			<path class="st0" d="M17.3,8.1c-0.3,0-0.5,0.2-0.5,0.5V17h-4.2v-4.6c0-1.4-1.2-2.6-2.6-2.6s-2.6,1.2-2.6,2.6V17H3.2V8.6
				c0-0.3-0.2-0.5-0.5-0.5S2.2,8.3,2.2,8.6v8.9c0,0.3,0.2,0.5,0.5,0.5h5.2c0.3,0,0.5-0.2,0.5-0.5c0,0,0,0,0,0v-5.1
				c0-0.9,0.7-1.6,1.6-1.6c0.9,0,1.6,0.7,1.6,1.6v5.1c0,0,0,0,0,0c0,0.3,0.2,0.5,0.5,0.5h5.2c0.3,0,0.5-0.2,0.5-0.5V8.6
				C17.8,8.3,17.6,8.1,17.3,8.1z"/>
		</g>
	</g>
</g>
</svg>
