<?xml version="1.0" encoding="utf-8"?>
<!-- Generator: Adobe Illustrator 22.0.1, SVG Export Plug-In . SVG Version: 6.00 Build 0)  -->
<svg version="1.1" id="Layer_1" xmlns="http://www.w3.org/2000/svg" xmlns:xlink="http://www.w3.org/1999/xlink" x="0px" y="0px"
	 viewBox="0 0 20 10" style="enable-background:new 0 0 20 10;" xml:space="preserve">
<style type="text/css">
	.st0{fill:#FFFFFF;}
</style>
<g>
	<g>
		<g>
			<path class="st0" d="M17.9,0.3c-1.2,0-2.1,1-2.1,2.1c0,0.4,0.1,0.8,0.3,1.2l-2.3,2.3c-0.3-0.2-0.7-0.3-1.2-0.3
				c-0.4,0-0.9,0.1-1.2,0.4L9.1,3.5c0.2-0.3,0.3-0.7,0.3-1.2c0-1.2-1-2.1-2.1-2.1s-2.1,1-2.1,2.1c0,0.4,0.1,0.8,0.3,1.2L3.3,5.8
				C2.9,5.6,2.6,5.5,2.1,5.5C1,5.5,0,6.4,0,7.6s1,2.1,2.1,2.1s2.1-1,2.1-2.1c0-0.4-0.1-0.8-0.3-1.2l2.3-2.3c0.3,0.2,0.7,0.3,1.2,0.3
				c0.4,0,0.8-0.1,1.2-0.3l2.3,2.3c-0.2,0.3-0.3,0.7-0.3,1.1c0,1.2,1,2.1,2.1,2.1s2.1-1,2.1-2.1c0-0.4-0.1-0.8-0.3-1.2l2.3-2.3
				c0.3,0.2,0.7,0.3,1.2,0.3c1.2,0,2.1-1,2.1-2.1C20,1.2,19,0.3,17.9,0.3z M2.1,8.9c-0.7,0-1.2-0.6-1.2-1.2c0-0.7,0.6-1.2,1.2-1.2
				c0.7,0,1.2,0.6,1.2,1.2C3.4,8.3,2.8,8.9,2.1,8.9z M7.4,3.6c-0.7,0-1.2-0.6-1.2-1.2c0-0.7,0.6-1.2,1.2-1.2c0.7,0,1.2,0.6,1.2,1.2
				S8,3.6,7.4,3.6z M12.6,8.9c-0.7,0-1.2-0.6-1.2-1.2s0.6-1.2,1.2-1.2c0.7,0,1.2,0.6,1.2,1.2C13.9,8.3,13.3,8.9,12.6,8.9z M17.9,3.6
				c-0.7,0-1.2-0.6-1.2-1.2c0-0.7,0.6-1.2,1.2-1.2c0.7,0,1.2,0.6,1.2,1.2S18.6,3.6,17.9,3.6z"/>
		</g>
	</g>
	<g>
		<g>
			<path class="st0" d="M6.9,5.7c-0.2-0.2-0.4-0.2-0.6,0L5.4,6.5C5.2,6.7,5.2,7,5.4,7.2c0.1,0.1,0.2,0.1,0.3,0.1
				c0.1,0,0.2,0,0.3-0.1l0.9-0.9C7.1,6.1,7.1,5.8,6.9,5.7z"/>
		</g>
	</g>
	<g>
		<g>
			<path class="st0" d="M14.6,2.8c-0.2-0.2-0.4-0.2-0.6,0l-0.9,0.9c-0.2,0.2-0.2,0.4,0,0.6c0.1,0.1,0.2,0.1,0.3,0.1
				c0.1,0,0.2,0,0.3-0.1l0.9-0.9C14.8,3.3,14.8,3,14.6,2.8z"/>
		</g>
	</g>
</g>
</svg>
