<?xml version="1.0" encoding="utf-8"?>
<!-- Generator: Adobe Illustrator 22.0.1, SVG Export Plug-In . SVG Version: 6.00 Build 0)  -->
<svg version="1.1" id="Layer_1" xmlns="http://www.w3.org/2000/svg" xmlns:xlink="http://www.w3.org/1999/xlink" x="0px" y="0px"
	 viewBox="0 0 20 18" style="enable-background:new 0 0 20 18;" xml:space="preserve">
<style type="text/css">
	.st0{fill:#FFFFFF;}
</style>
<g>
	<g>
		<path class="st0" d="M20,9c0-0.4-0.2-0.8-0.6-1l-1.5-0.7l1.5-0.7c0,0,0,0,0,0c0.4-0.2,0.6-0.6,0.6-1c0-0.4-0.2-0.8-0.6-1L11,0.3
			C10.4,0,9.6,0,9,0.3L0.6,4.5C0.2,4.7,0,5.1,0,5.5c0,0.4,0.2,0.8,0.6,1l1.5,0.7L0.6,8C0.2,8.2,0,8.6,0,9c0,0.4,0.2,0.8,0.6,1
			l1.5,0.7l-1.5,0.7C0.2,11.7,0,12,0,12.5c0,0.4,0.2,0.8,0.6,1L9,17.7c0.3,0.2,0.6,0.2,1,0.2c0.3,0,0.7-0.1,1-0.2l8.4-4.2
			c0.4-0.2,0.6-0.6,0.6-1c0-0.4-0.2-0.8-0.6-1l-1.5-0.7l1.5-0.7C19.8,9.8,20,9.4,20,9z M1,5.7c-0.1,0-0.1-0.1-0.1-0.2
			c0,0,0-0.1,0.1-0.2l8.4-4.2C9.6,1.1,9.8,1,10,1c0.2,0,0.4,0,0.6,0.1L19,5.4c0.1,0,0.1,0.1,0.1,0.2c0,0,0,0.1-0.1,0.2l-8.4,4.2
			c-0.4,0.2-0.8,0.2-1.1,0L1,5.7z M19,12.3c0.1,0,0.1,0.1,0.1,0.2c0,0,0,0.1-0.1,0.2l-8.4,4.2c-0.4,0.2-0.8,0.2-1.1,0L1,12.6
			c-0.1,0-0.1-0.1-0.1-0.2c0,0,0-0.1,0.1-0.2l2.1-1.1L9,14.2c0.3,0.2,0.6,0.2,1,0.2c0.3,0,0.7-0.1,1-0.2l5.9-2.9L19,12.3z M19,9.2
			l-8.4,4.2c-0.4,0.2-0.8,0.2-1.1,0L1,9.2C0.9,9.1,0.9,9,0.9,9c0,0,0-0.1,0.1-0.2l2.1-1.1L9,10.7c0.3,0.2,0.6,0.2,1,0.2
			c0.3,0,0.7-0.1,1-0.2l5.9-2.9L19,8.8c0.1,0,0.1,0.1,0.1,0.2C19.1,9,19.1,9.1,19,9.2z"/>
	</g>
</g>
</svg>
