<?xml version="1.0" encoding="utf-8"?>
<!-- Generator: Adobe Illustrator 22.0.1, SVG Export Plug-In . SVG Version: 6.00 Build 0)  -->
<svg version="1.1" id="Layer_1" xmlns="http://www.w3.org/2000/svg" xmlns:xlink="http://www.w3.org/1999/xlink" x="0px" y="0px"
	 viewBox="0 0 20 27" style="enable-background:new 0 0 20 27;" xml:space="preserve">
<style type="text/css">
	.st0{fill:#FFFFFF;}
</style>
<g>
	<g>
		<g>
			<path class="st0" d="M19.8,22.1l-1.3-2.5v-6.2c0-3.9-2.6-7.1-6.1-8.1V2.1c0-1.3-1.1-2.4-2.4-2.4S7.6,0.8,7.6,2.1v3.1
				c-3.5,1-6.1,4.3-6.1,8.1v6.2l-1.3,2.5c-0.3,0.5-0.2,1.1,0,1.5c0.3,0.5,0.8,0.8,1.3,0.8h5.3C7,26,8.3,27.3,10,27.3
				c1.7,0,3-1.3,3.1-2.9h5.3c0.6,0,1-0.3,1.3-0.8C20.1,23.1,20.1,22.6,19.8,22.1z M8.9,2.1C8.9,1.4,9.4,1,10,1
				c0.6,0,1.1,0.5,1.1,1.1v2.9c-0.4,0-0.7-0.1-1.1-0.1c-0.4,0-0.7,0-1.1,0.1L8.9,2.1L8.9,2.1z M2.8,13.3c0-4,3.2-7.2,7.2-7.2
				s7.2,3.2,7.2,7.2V19H2.8V13.3z M10,26c-1,0-1.8-0.7-1.9-1.7h3.7C11.8,25.3,11,26,10,26z M18.7,23c0,0-0.1,0.2-0.3,0.2H1.6
				c-0.2,0-0.2-0.1-0.3-0.2c0,0-0.1-0.2,0-0.3l1.3-2.4h14.9l1.3,2.4C18.8,22.8,18.7,22.9,18.7,23z"/>
		</g>
	</g>
	<g>
		<g>
			<path class="st0" d="M10,7.7c-3.1,0-5.6,2.5-5.6,5.6c0,0.3,0.3,0.6,0.6,0.6s0.6-0.3,0.6-0.6C5.7,10.9,7.6,9,10,9
				c0.3,0,0.6-0.3,0.6-0.6C10.6,8,10.3,7.7,10,7.7z"/>
		</g>
	</g>
</g>
</svg>
