<?xml version="1.0" encoding="utf-8"?>
<!-- Generator: Adobe Illustrator 22.0.1, SVG Export Plug-In . SVG Version: 6.00 Build 0)  -->
<svg version="1.1" id="Layer_1" xmlns="http://www.w3.org/2000/svg" xmlns:xlink="http://www.w3.org/1999/xlink" x="0px" y="0px"
	 viewBox="0 0 20 23" style="enable-background:new 0 0 20 23;" xml:space="preserve">
<style type="text/css">
	.st0{fill:#FFFFFF;}
</style>
<g>
	<g>
		<g>
			<path class="st0" d="M18.6,0.1H1.4C0.6,0.1,0,0.7,0,1.4v20.2c0,0.7,0.6,1.4,1.4,1.4h17.3c0.7,0,1.4-0.6,1.4-1.4V1.4
				C20,0.7,19.4,0.1,18.6,0.1z M1.1,1.4c0-0.1,0.1-0.3,0.3-0.3h17.3c0.1,0,0.3,0.1,0.3,0.3v4.7H1.1V1.4z M6.3,21.9h-5
				c-0.1,0-0.3-0.1-0.3-0.3v-6.5h5.2V21.9z M6.3,14H1.1V7.2h5.2V14z M12.6,21.9H7.4v-6.8h5.2V21.9z M12.6,14H7.4V7.2h5.2V14z
				 M18.9,21.6c0,0.1-0.1,0.3-0.3,0.3h-5V7.2h5.2V21.6z"/>
		</g>
	</g>
	<g>
		<g>
			<path class="st0" d="M5,10H4.2V9.2c0-0.3-0.2-0.5-0.5-0.5S3.2,8.9,3.2,9.2V10H2.4c-0.3,0-0.5,0.2-0.5,0.5c0,0.3,0.2,0.5,0.5,0.5
				h0.8v0.8c0,0.3,0.2,0.5,0.5,0.5s0.5-0.2,0.5-0.5v-0.8H5c0.3,0,0.5-0.2,0.5-0.5C5.6,10.3,5.3,10,5,10z"/>
		</g>
	</g>
	<g>
		<g>
			<path class="st0" d="M11.4,10H8.6c-0.3,0-0.5,0.2-0.5,0.5c0,0.3,0.2,0.5,0.5,0.5h2.7c0.3,0,0.5-0.2,0.5-0.5
				C11.9,10.3,11.7,10,11.4,10z"/>
		</g>
	</g>
	<g>
		<g>
			<path class="st0" d="M4.5,18.5l0.7-0.7c0.2-0.2,0.2-0.6,0-0.8c-0.2-0.2-0.6-0.2-0.8,0l-0.7,0.7L3,17c-0.2-0.2-0.6-0.2-0.8,0
				c-0.2,0.2-0.2,0.6,0,0.8l0.7,0.7l-0.7,0.7c-0.2,0.2-0.2,0.6,0,0.8C2.4,20,2.5,20,2.7,20C2.8,20,2.9,20,3,19.9l0.7-0.7l0.7,0.7
				C4.5,20,4.6,20,4.7,20C4.9,20,5,20,5.1,19.9c0.2-0.2,0.2-0.6,0-0.8L4.5,18.5z"/>
		</g>
	</g>
	<g>
		<g>
			<path class="st0" d="M11.4,17c-0.2-0.2-0.6-0.2-0.8,0l-2.1,2.1c-0.2,0.2-0.2,0.6,0,0.8C8.7,20,8.8,20,9,20s0.3-0.1,0.4-0.2
				l2.1-2.1C11.6,17.6,11.6,17.3,11.4,17z"/>
		</g>
	</g>
	<g>
		<g>
			<circle class="st0" cx="9" cy="17.4" r="0.5"/>
		</g>
	</g>
	<g>
		<g>
			<circle class="st0" cx="11" cy="19.5" r="0.5"/>
		</g>
	</g>
	<g>
		<g>
			<path class="st0" d="M17.7,13h-2.8c-0.3,0-0.5,0.2-0.5,0.5c0,0.3,0.2,0.5,0.5,0.5h2.8c0.3,0,0.5-0.2,0.5-0.5
				C18.2,13.3,18,13,17.7,13z"/>
		</g>
	</g>
	<g>
		<g>
			<path class="st0" d="M17.7,14.9h-2.8c-0.3,0-0.5,0.2-0.5,0.5c0,0.3,0.2,0.5,0.5,0.5h2.8c0.3,0,0.5-0.2,0.5-0.5
				C18.2,15.2,18,14.9,17.7,14.9z"/>
		</g>
	</g>
</g>
</svg>
