<?xml version="1.0" encoding="utf-8"?>
<!-- Generator: Adobe Illustrator 22.0.1, SVG Export Plug-In . SVG Version: 6.00 Build 0)  -->
<svg version="1.1" id="Layer_1" xmlns="http://www.w3.org/2000/svg" xmlns:xlink="http://www.w3.org/1999/xlink" x="0px" y="0px"
	 viewBox="0 0 20 18" style="enable-background:new 0 0 20 18;" xml:space="preserve">
<style type="text/css">
	.st0{fill:#FFFFFF;}
</style>
<g>
	<g>
		<g>
			<path class="st0" d="M18.8,0.1H1.2C0.5,0.1,0,0.6,0,1.3v12.1c0,0.7,0.5,1.2,1.2,1.2h6v0.9c0,0.8-0.7,1.5-1.5,1.5H4.4
				C4.2,17,4,17.2,4,17.4s0.2,0.5,0.5,0.5h11.1c0.3,0,0.5-0.2,0.5-0.5S15.8,17,15.6,17h-1.3c-0.8,0-1.5-0.7-1.5-1.5v-0.9h6
				c0.7,0,1.2-0.5,1.2-1.2V1.3C20,0.6,19.5,0.1,18.8,0.1z M7.7,17c0.3-0.4,0.5-0.9,0.5-1.5v-0.9h3.7v0.9c0,0.6,0.2,1.1,0.5,1.5H7.7z
				 M19.1,13.4c0,0.2-0.1,0.3-0.3,0.3H1.2c-0.2,0-0.3-0.1-0.3-0.3V11h18.2V13.4z M19.1,10.1H0.9V1.3C0.9,1.1,1.1,1,1.2,1h17.6
				c0.2,0,0.3,0.1,0.3,0.3L19.1,10.1L19.1,10.1z"/>
		</g>
	</g>
	<g>
		<g>
			<circle class="st0" cx="10" cy="12.4" r="0.5"/>
		</g>
	</g>
	<g>
		<g>
			<path class="st0" d="M10.8,3.3c-0.2-0.2-0.5-0.2-0.7,0L6.9,6.5C6.7,6.7,6.7,7,6.9,7.2C7,7.3,7.1,7.3,7.2,7.3c0.1,0,0.2,0,0.3-0.1
				l3.3-3.3C11,3.7,11,3.4,10.8,3.3z"/>
		</g>
	</g>
	<g>
		<g>
			<path class="st0" d="M12.7,5.2c-0.2-0.2-0.5-0.2-0.7,0l-1.3,1.3c-0.2,0.2-0.2,0.5,0,0.7c0.1,0.1,0.2,0.1,0.3,0.1
				c0.1,0,0.2,0,0.3-0.1l1.3-1.3C12.9,5.6,12.9,5.3,12.7,5.2z"/>
		</g>
	</g>
</g>
</svg>
