<svg height="512pt" viewBox="-20 0 512 512.001" width="512pt" xmlns="http://www.w3.org/2000/svg"><path d="m323.796875 272.515625c4.144531 0 7.5-3.355469 7.5-7.5v-17.082031c0-4.140625-3.355469-7.5-7.5-7.5-4.140625 0-7.5 3.359375-7.5 7.5v17.082031c0 4.144531 3.359375 7.5 7.5 7.5zm0 0"/><path d="m312.164062 297.628906h23.269532c4.140625 0 7.5-3.359375 7.5-7.5 0-4.144531-3.359375-7.5-7.5-7.5h-23.269532c-4.140624 0-7.5 3.355469-7.5 7.5 0 4.140625 3.359376 7.5 7.5 7.5zm0 0"/><path d="m148.078125 272.515625c4.140625 0 7.5-3.355469 7.5-7.5v-17.082031c0-4.140625-3.359375-7.5-7.5-7.5-4.144531 0-7.5 3.359375-7.5 7.5v17.082031c0 4.144531 3.355469 7.5 7.5 7.5zm0 0"/><path d="m136.441406 297.628906h23.269532c4.140624 0 7.5-3.359375 7.5-7.5 0-4.144531-3.359376-7.5-7.5-7.5h-23.269532c-4.140625 0-7.5 3.355469-7.5 7.5 0 4.140625 3.359375 7.5 7.5 7.5zm0 0"/><path d="m235.9375 296.660156c8.289062 0 16.074219-3.464844 21.359375-9.515625 2.726563-3.117187 2.410156-7.855469-.707031-10.582031-3.121094-2.726562-7.859375-2.410156-10.585938.710938-2.4375 2.789062-6.105468 4.386718-10.066406 4.386718s-7.628906-1.597656-10.066406-4.386718c-2.730469-3.121094-7.464844-3.4375-10.585938-.710938-3.117187 2.726562-3.4375 7.464844-.707031 10.582031 5.285156 6.046875 13.070313 9.515625 21.359375 9.515625zm0 0"/><path d="m352.859375 27.4375c-8.199219 0-15.636719 3.332031-21.023437 8.710938-21.867188-10.378907-45.15625-17.054688-69.378907-19.886719-4.933593-9.644531-14.964843-16.261719-26.519531-16.261719s-21.585938 6.617188-26.519531 16.261719c-24.226563 2.832031-47.515625 9.507812-69.378907 19.886719-5.390624-5.378907-12.824218-8.710938-21.023437-8.710938-16.417969 0-29.777344 13.359375-29.777344 29.78125v12.289062c-3.339843 2.914063-6.574219 5.898438-9.636719 8.90625-22.863281 22.480469-40.042968 48.734376-51.144531 78.089844-15.761719.433594-28.457031 13.378906-28.457031 29.246094 0 13.085938 8.636719 24.195312 20.507812 27.925781-.601562 5.515625-.710937 13.40625 1.292969 22.761719-10.324219 7.652344-17.027343 19.917969-17.027343 33.722656 0 23.140625 18.824218 41.960938 41.960937 41.960938 4.605469 0 9.164063-.761719 13.488281-2.230469 20.828125 45.855469 59.671875 82.113281 107.628906 100.027344-3.289062 3.273437-7.085937 7.421875-11.003906 12.46875-.019531.027343-.035156.058593-.054687.085937-18.140625 23.429688-27.851563 52.417969-27.851563 82.027344 0 4.144531 3.359375 7.5 7.5 7.5h199.007813c4.277343 0 7.789062-3.8125 7.480469-8.066406-.117188-29.367188-9.847657-58.214844-27.84375-81.457032-.019532-.027343-.039063-.058593-.0625-.085937-3.914063-5.050781-7.714844-9.195313-11.003907-12.472656 47.957031-17.914063 86.804688-54.171875 107.632813-100.023438 4.324218 1.46875 8.882812 2.230469 13.488281 2.230469 23.136719 0 41.960937-18.824219 41.960937-41.960938 0-13.808593-6.707031-26.074218-17.027343-33.726562 2.003906-9.351562 1.894531-17.246094 1.292969-22.761719 11.871093-3.730469 20.507812-14.835937 20.507812-27.921875 0-15.867187-12.695312-28.816406-28.457031-29.246094-11.09375-29.351562-28.277344-55.605468-51.148438-78.09375-3.058593-3.007812-6.292969-5.992187-9.632812-8.90625v-12.289062c0-16.421875-13.359375-29.78125-29.777344-29.78125zm0 15c8.148437 0 14.777344 6.628906 14.777344 14.78125v47.304688c0 7.960937-6.714844 14.78125-14.777344 14.78125-7.953125 0-14.78125-6.726563-14.78125-14.78125v-47.304688c0-8.050781 6.742187-14.78125 14.78125-14.78125zm-116.921875-27.4375c7.960938 0 14.777344 6.808594 14.777344 14.78125v47.304688c0 8.042968-6.730469 14.78125-14.777344 14.78125-7.984375 0-14.78125-6.800782-14.78125-14.78125 0 0 0-47.304688 0-47.308594 0-8.039063 6.742188-14.777344 14.78125-14.777344zm-131.699219 42.21875c0-8.148438 6.628907-14.78125 14.777344-14.78125 8.007813 0 14.78125 6.773438 14.78125 14.78125v47.304688c0 7.980468-6.699219 14.78125-14.78125 14.78125-7.953125 0-14.777344-6.726563-14.777344-14.78125zm-68.4375 172.429688c-.933593-6.113282-.75-11.164063-.355469-14.632813h9.007813c-.023437.238281-.039063.480469-.0625.71875-.382813 4.1875-.632813 8.378906-.738281 12.578125-.039063.117188-1.507813.144531-1.6875.164062-2.082032.242188-4.144532.628907-6.164063 1.171876zm18.722657 66.324218c-2.515626.757813-5.140626 1.148438-7.789063 1.148438-14.867187 0-26.960937-12.09375-26.960937-26.960938 0-10.398437 5.917968-19.4375 14.5625-23.933594 2.601562-1.351562 6.492187-3.019531 9.542968-2.832031.34375 3.210938.453125 6.441407.796875 9.648438.320313 2.964843.722657 6.046875 1.195313 9.042969 1.808594 11.539062 4.695312 22.867187 8.652344 33.886718zm139.570312 121.695313v39.859375c-.054688-.050782-.113281-.101563-.167969-.152344-9.089843-8.25-17.074219-18-22.449219-29.082031-.015624-.03125-.03125-.066407-.046874-.097657 5.226562-6.246093 9.957031-10.585937 12.777343-12.960937 1.308594.359375 7.902344 1.996094 9.886719 2.433594zm0 79.332031h-6.539062c-5.480469-6.472656-9.738282-13.988281-12.441407-22.027344-.011719-.027344-.023437-.0625-.03125-.085937l6.925781-8.09375c.207032.195312 8.101563 7.148437 12.085938 10.109375zm-49.925781 0c.785156-13.167969 3.707031-26.199219 8.777343-38.382812 2.4375-5.855469 5.355469-11.515626 8.726563-16.929688.039063.0625.078125.128906.117187.191406 2.914063 4.890625 6.257813 9.535156 9.886719 13.917969 0 0-10.542969 12.320313-10.601562 12.386719-3.574219 4.175781-.703125 10.433594.976562 14.804687 1.875 4.878907 4.230469 9.574219 6.992188 14.011719zm64.925781-76.667969c.363281.046875 4.679688.582031 5.460938.664063l-.625 10.433594c-.28125 4.746093 1.542968 9.398437 4.863281 12.714843l-5.570313 52.855469h-4.125v-76.667969zm53.6875 0v76.667969h-4.128906l-5.480469-52.039062c3.871094-3.339844 6.046875-8.378907 5.742187-13.53125l-.628906-10.539063c.460938-.054687 4.128906-.507813 4.496094-.558594zm-33.214844 13.355469c-.441406-.304688-.695312-.828125-.664062-1.363281l.613281-10.257813c4.601563.144532 9.207031.136719 13.808594-.03125l.617187 10.289063c.03125.535156-.222656 1.058593-.664062 1.363281l-6.855469 4.765625zm-1.257812 63.3125 4.625-43.917969c1.035156.238281 2.09375.378907 3.152344.402344.964843.019531 1.925781-.050781 2.875-.207031l4.605468 43.722656zm49.472656-20.101562c.265625-.199219 11.878906-9.914063 12.085938-10.109376l6.925781 8.09375c-.003907.015626-.011719.03125-.015625.046876-2.769532 8.027343-6.96875 15.582031-12.460938 22.070312h-6.539062v-20.101562zm47.902344 4.113281c1.023437 5.195312 1.703125 10.550781 2.027344 15.988281h-24.875c.0625-.101562.117187-.199219.179687-.304688 3.242187-5.257812 5.929687-10.878906 7.902344-16.734374 1.265625-3.769532 2.808593-8.363282-.117188-11.777344l-10.601562-12.386719c.105469-.125.199219-.246094.304687-.371094 3.527344-4.292969 6.832032-8.925781 9.699219-13.738281 3.371094 5.414062 6.292969 11.074219 8.726563 16.929688 3.007812 7.226562 5.28125 14.75 6.753906 22.394531zm-38.015625-65.777344c2.820312 2.378906 7.554687 6.71875 12.777343 12.957031-.03125.070313-.0625.132813-.097656.203125-1.570312 3.234375-3.382812 6.351563-5.382812 9.34375-4.835938 7.234375-10.59375 13.761719-17.011719 19.632813-.054687.050781-.117187.101562-.171875.15625v-39.863282c2.277344-.496093 8.867188-2.148437 9.886719-2.429687zm137.472656-118.113281c-2.648437 0-5.273437-.390625-7.789063-1.148438 3.953126-11.007812 6.835938-22.324218 8.644532-33.855468.972656-6.210938 1.640625-12.476563 1.988281-18.753907.113281.011719.230469.015625.34375.03125 13.382813 1.613281 23.773437 13.28125 23.773437 26.765625 0 14.867188-12.09375 26.960938-26.960937 26.960938zm9.402344-67.847656c-2.082031-.472657-4.195313-.800782-6.320313-.960938-.113281-4.4375-.378906-8.875-.800781-13.296875h9.019531c.394532 3.464844.574219 8.511719-.359375 14.632813-.019531-.105469-1.414062-.34375-1.539062-.375zm-7.242188-72.789063h-55.636719c-4.144531 0-7.5 3.359375-7.5 7.5s3.355469 7.5 7.5 7.5h70.945313c7.863281 0 14.265625 6.398437 14.265625 14.265625s-6.402344 14.265625-14.265625 14.265625h-319.210937c-4.144532 0-7.5 3.359375-7.5 7.5s3.355468 7.5 7.5 7.5h288.9375c.230468.027344.40625 4.449219.445312 4.949219.886719 11.71875.558594 23.703125-.960938 35.40625-9.128906 69.535156-60.15625 126.359375-127.332031 145.164062-.03125.011719-.066406.019532-.097656.027344-31.652344 8.570312-65.273437 8.84375-96.910156 0-.027344-.007812-.058594-.015625-.089844-.027344-67.179687-18.804687-118.214844-75.636718-127.335937-145.183594-.246094-1.878906-3.023438-40.335937-.515626-40.335937h34.25c4.140626 0 7.5-3.359375 7.5-7.5 0-4.03125-3.464843-7.5-7.5-7.5 0 0-64.519531 0-64.523437 0-7.863281 0-14.265625-6.398437-14.265625-14.265625s6.402344-14.265625 14.265625-14.265625h312.421875c4.027344 0 7.5-3.480469 7.5-7.5 0-4.144531-3.359375-7.5-7.5-7.5h-297.109375c10.195313-24.800781 25.183594-47.128906 44.660156-66.503906v14.542969c0 16.113281 13.570313 29.78125 29.777344 29.78125 16.078125 0 29.78125-13.609376 29.78125-29.78125v-47.304688c0-2.734375-.378906-5.460938-1.121094-8.09375 18.519531-8.644531 38.125-14.453125 58.480469-17.328125v45.289063c0 16.210937 13.570312 29.78125 29.78125 29.78125 16.089844 0 29.777344-13.703126 29.777344-29.78125v-45.289063c20.355468 2.875 39.964844 8.683594 58.484375 17.328125-.023438.070312-.035157.144531-.054688.21875-.699219 2.550781-1.066406 5.226562-1.066406 7.875v47.304688c0 16.109374 13.570313 29.78125 29.78125 29.78125 16.074219 0 29.777344-13.609376 29.777344-29.78125v-14.539063c19.484375 19.378906 34.472656 41.703125 44.664062 66.5zm0 0"/></svg>