<svg height="511pt" viewBox="-20 1 511 511.999" width="511pt" xmlns="http://www.w3.org/2000/svg"><path d="m324.296875 272.515625c4.140625 0 7.5-3.355469 7.5-7.5v-17.082031c0-4.140625-3.359375-7.5-7.5-7.5s-7.5 3.359375-7.5 7.5v17.082031c0 4.144531 3.359375 7.5 7.5 7.5zm0 0"/><path d="m312.664062 297.625h23.265626c4.144531 0 7.5-3.355469 7.5-7.5 0-4.140625-3.355469-7.5-7.5-7.5h-23.265626c-4.140624 0-7.5 3.359375-7.5 7.5 0 4.144531 3.355469 7.5 7.5 7.5zm0 0"/><path d="m148.574219 272.515625c4.144531 0 7.5-3.355469 7.5-7.5v-17.082031c0-4.140625-3.355469-7.5-7.5-7.5-4.140625 0-7.5 3.359375-7.5 7.5v17.082031c0 4.144531 3.359375 7.5 7.5 7.5zm0 0"/><path d="m136.941406 297.625h23.269532c4.140624 0 7.5-3.355469 7.5-7.5 0-4.140625-3.359376-7.5-7.5-7.5h-23.269532c-4.140625 0-7.5 3.359375-7.5 7.5 0 4.144531 3.359375 7.5 7.5 7.5zm0 0"/><path d="m236.4375 296.660156c8.289062 0 16.074219-3.46875 21.359375-9.515625 2.726563-3.117187 2.410156-7.855469-.710937-10.582031-3.117188-2.726562-7.855469-2.410156-10.582032.710938-2.4375 2.789062-6.105468 4.386718-10.066406 4.386718s-7.632812-1.597656-10.070312-4.386718c-2.726563-3.117188-7.460938-3.4375-10.582032-.710938-3.117187 2.726562-3.4375 7.464844-.710937 10.582031 5.289062 6.046875 13.074219 9.515625 21.363281 9.515625zm0 0"/><path d="m353.359375 27.4375c-8.199219 0-15.636719 3.332031-21.027344 8.710938-21.863281-10.378907-45.152343-17.058594-69.375-19.886719-4.933593-9.644531-14.964843-16.261719-26.519531-16.261719s-21.585938 6.617188-26.519531 16.261719c-24.226563 2.832031-47.515625 9.507812-69.378907 19.886719-5.390624-5.378907-12.824218-8.710938-21.023437-8.710938-16.417969 0-29.777344 13.359375-29.777344 29.78125v12.285156c-3.339843 2.914063-6.570312 5.898438-9.636719 8.910156-22.863281 22.480469-40.042968 48.734376-51.144531 78.089844-15.761719.429688-28.457031 13.378906-28.457031 29.246094 0 13.085938 8.632812 24.191406 20.503906 27.925781-.597656 5.515625-.707031 13.40625 1.296875 22.757813-10.324219 7.652344-17.027343 19.921875-17.027343 33.726562 0 18.449219 11.96875 34.144532 28.550781 39.75 1.695312 66.03125 32.117187 101.585938 57.757812 119.886719 18.742188 13.371094 37.398438 19.570313 48.351563 22.296875-6.78125 16.394531-10.488282 34.367188-10.488282 52.40625 0 4.140625 3.359376 7.5 7.5 7.5h198.980469c4.140625 0 7.5-3.359375 7.5-7.5 0-18.039062-3.707031-36.007812-10.488281-52.402344 13.667969-3.394531 39.316406-12.191406 62.148438-33.609375 3.019531-2.835937 3.171874-7.582031.335937-10.601562-2.832031-3.019531-7.578125-3.171875-10.597656-.339844-22.179688 20.808594-47.902344 28.324219-58.539063 30.675781-4.433594-7.984375-9.742187-15.511718-15.824218-22.328125-1.847657-2.074219-3.765626-4.085937-5.757813-6.019531.667969-.253906 10.980469-4.355469 15.109375-6.421875 16.851562-8 32.570312-18.417969 46.390625-30.847656 19.484375-17.523438 35.285156-39.09375 45.992187-62.695313.214844.070313.4375.125.652344.195313 3.585938 1.152343 7.367188 1.835937 11.132813 1.984375-1.09375 28.789062-8.160157 53.535156-21.050781 73.65625-2.234376 3.488281-1.21875 8.125 2.269531 10.359375 3.484375 2.234375 8.125 1.21875 10.363281-2.269531 14.769531-23.054688 22.652344-51.269532 23.484375-83.925782 16.578125-5.605468 28.550781-21.300781 28.550781-39.75 0-13.808594-6.703125-26.074218-17.023437-33.726562 2.003906-9.355469 1.894531-17.242188 1.292969-22.761719 11.871093-3.730469 20.503906-14.835937 20.503906-27.925781 0-15.863282-12.691406-28.8125-28.453125-29.242188-11.09375-29.351562-28.277344-55.605468-51.152344-78.09375-3.0625-3.011718-6.292969-5.996094-9.628906-8.90625v-12.285156c0-16.421875-13.359375-29.78125-29.777344-29.78125zm0 15c8.148437 0 14.777344 6.628906 14.777344 14.78125v47.304688c0 8.148437-6.628907 14.78125-14.777344 14.78125-8.152344 0-14.78125-6.632813-14.78125-14.78125 0 0 0-47.300782 0-47.304688 0-8.050781 6.746094-14.78125 14.78125-14.78125zm-116.921875-27.4375c7.914062 0 14.777344 6.875 14.777344 14.777344v47.308594c0 8.023437-7.074219 14.902343-15.066406 14.765624-7.84375-.136718-14.492188-6.8125-14.492188-14.765624v-47.308594c0-8.039063 6.742188-14.777344 14.78125-14.777344zm-116.921875 27.4375c8.027344 0 14.78125 6.757812 14.78125 14.78125v47.304688c0 8.148437-6.632813 14.78125-14.78125 14.78125-8.042969 0-14.777344-6.734376-14.777344-14.78125v-47.304688c-.003906-8.152344 6.628907-14.78125 14.777344-14.78125zm-83.21875 187.210938c-.929687-6.113282-.75-11.164063-.351563-14.632813h9.015626c-.421876 4.414063-.695313 8.863281-.808594 13.296875-.175782.011719-.355469.035156-.53125.050781-2.429688.214844-4.851563.625-7.207032 1.257813-.039062.011718-.078124.019531-.117187.027344zm376.53125-14.632813c1.40625 13.410156 1.21875 26.980469-.511719 40.351563-7.414062 56.492187-42.480468 104.59375-91.398437 130.738281-.007813.007812-.019531.011719-.03125.019531-50.78125 27.082031-114 27.796875-165.351563 1.839844-50.78125-25.679688-87.390625-74.738282-94.980468-132.605469-.515626-3.949219-3.164063-40.34375-.511719-40.34375zm-202.5625 205.410156c8.667969 1.164063 17.425781 1.746094 26.171875 1.746094 8.742188 0 17.503906-.585937 26.167969-1.746094v18.464844c0 4.566406-3.714844 8.28125-8.277344 8.28125h-35.78125c-4.566406 0-8.28125-3.714844-8.28125-8.28125zm-189.992187-150.265625c0-10.402344 5.921874-19.445312 14.574218-23.941406 2.859375-1.488281 6-2.441406 9.203125-2.828125.113281-.011719.226563-.019531.335938-.03125.347656 6.28125 1.019531 12.542969 1.992187 18.753906 1.804688 11.527344 4.6875 22.839844 8.636719 33.847657-.113281.03125-.226563.070312-.34375.101562-3.917969 1.125-8.089844 1.351562-12.109375.648438-12.648438-2.222657-22.289062-13.277344-22.289062-26.550782zm126.304687 168.078125c-8.695313-1.894531-27.488281-7.242187-46.28125-20.652343-32.394531-23.113282-49.667969-58.582032-51.410156-105.496094.175781-.007813.347656-.03125.523437-.039063 3.792969-.199219 7.664063-.925781 11.265625-2.140625 10.722657 23.617188 26.515625 45.175782 45.984375 62.691406 13.835938 12.445313 29.566406 22.867188 46.433594 30.871094.027344.011719 10.003906 4.5 15.074219 6.402344-.21875.214844-9.296875 9.894531-13.015625 14.992188-.007813.007812-.015625.019531-.019532.027343-3.089843 4.214844-5.957031 8.664063-8.554687 13.34375zm11.332031 10.652344c2.207032-4.261719 4.640625-8.394531 7.355469-12.351563v60.460938h-20.582031c1.0625-16.894531 5.695312-33.453125 13.226562-48.109375zm22.355469 48.109375v-77.917969c.183594-.171875.371094-.335937.554687-.503906 1.261719-1.148437 2.550782-2.265625 3.875-3.347656.945313.261719 1.898438.496093 2.851563.742187 2.515625.648438 5.140625 1.289063 7.71875 1.84375v21.074219c0 12.835937 10.445313 23.28125 23.28125 23.28125h35.78125c12.835937 0 23.277344-10.445313 23.277344-23.28125v-21.074219c2.578125-.554687 9.621093-2.324218 10.574219-2.582031.140624.113281 3.125 2.644531 4.425781 3.847656v77.917969zm127.339844 0v-60.460938c.140625.203126 5.289062 8.324219 7.375 12.390626 7.523437 14.644531 12.144531 31.191406 13.210937 48.070312zm122.722656-200.292969c-4.136719.722657-8.453125.46875-12.472656-.746093 3.953125-11.007813 6.832031-22.320313 8.640625-33.851563.972656-6.207031 1.640625-12.472656 1.988281-18.75.652344.070313 1.300781.160156 1.949219.273437 12.671875 2.285157 22.167968 13.664063 22.167968 26.527344 0 13.269532-9.636718 24.320313-22.273437 26.546875zm-1.609375-68.394531c-.007812-.320312-.410156-9.195312-.808594-13.296875h9.027344c.398438 3.464844.578125 8.511719-.359375 14.632813-.042969-.007813-7.679687-1.320313-7.859375-1.335938zm-.917969-71.828125h-284.703125c-4.144531 0-7.5 3.359375-7.5 7.5s3.355469 7.5 7.5 7.5h300.007813c7.867187 0 14.265625 6.398437 14.265625 14.265625s-6.398438 14.265625-14.265625 14.265625h-413.339844c-7.867187 0-14.265625-6.398437-14.265625-14.265625s6.398438-14.265625 14.265625-14.265625h83.332031c4.140625 0 7.5-3.359375 7.5-7.5s-3.359375-7.5-7.5-7.5h-68.019531c10.191406-24.800781 25.179687-47.128906 44.65625-66.5v14.539063c0 16.078124 13.738281 29.78125 29.78125 29.78125 16.207031 0 29.777344-13.570313 29.777344-29.78125 0 0 0-47.304688 0-47.332032 0-2.066406-.207031-4.164062-.65625-6.183594-.03125-.152343-.503907-1.863281-.460938-1.886718 18.519531-8.640625 38.125-14.449219 58.480469-17.324219v45.289063c0 16.070312 13.707031 29.777343 29.78125 29.777343 16.417969 0 29.777344-13.355469 29.777344-29.777343v-45.289063c20.355468 2.875 39.960937 8.683594 58.480468 17.324219-.742187 2.628906-1.117187 5.367187-1.117187 8.097656v47.304688c0 16.421874 13.359375 29.78125 29.78125 29.78125 16.417969 0 29.777344-13.359376 29.777344-29.78125v-14.539063c19.484375 19.378906 34.472656 41.707031 44.664062 66.5zm0 0"/></svg>