<svg height="512pt" viewBox="0 -1 512.00048 512" width="512pt" xmlns="http://www.w3.org/2000/svg"><path d="m346.710938 257.4375c4.140624 0 7.5-3.355469 7.5-7.5v-17.636719c0-4.140625-3.359376-7.5-7.5-7.5-4.140626 0-7.5 3.359375-7.5 7.5v17.636719c0 4.144531 3.359374 7.5 7.5 7.5zm0 0"/><path d="m165.289062 257.4375c4.140626 0 7.5-3.355469 7.5-7.5v-17.636719c0-4.140625-3.359374-7.5-7.5-7.5-4.140624 0-7.5 3.359375-7.5 7.5v17.636719c0 4.144531 3.359376 7.5 7.5 7.5zm0 0"/><path d="m266.578125 292.714844c-2.5625 2.929687-6.417969 4.613281-10.578125 4.613281s-8.015625-1.683594-10.578125-4.613281c-2.726563-3.121094-7.464844-3.4375-10.582031-.710938-3.121094 2.726563-3.4375 7.464844-.710938 10.582032 5.410156 6.191406 13.382813 9.742187 21.871094 9.742187s16.460938-3.550781 21.871094-9.742187c2.726562-3.117188 2.410156-7.855469-.710938-10.582032-3.117187-2.730468-7.855468-2.410156-10.582031.710938zm0 0"/><path d="m303.652344 67.199219c-1.164063-3.578125-4.148438-6.5625-8.347656-7.175781l-20.660157-3s-9.222656-18.6875-9.238281-18.71875c-3.78125-7.660157-15.039062-7.644532-18.8125 0l-9.238281 18.71875s-20.617188 2.996093-20.65625 3c-8.410157 1.222656-11.90625 11.953124-5.8125 17.890624l14.949219 14.574219s-3.527344 20.546875-3.53125 20.574219c-1.441407 8.398438 7.683593 15.015625 15.21875 11.054688l18.476562-9.710938s18.445312 9.695312 18.480469 9.710938c7.535156 3.964843 16.65625-2.671876 15.214843-11.054688l-3.527343-20.574219s14.917969-14.542969 14.949219-14.570312c3.050781-2.980469 3.699218-7.144531 2.535156-10.71875zm-29.65625 16.199219c-2.472656 2.410156-3.597656 5.878906-3.015625 9.285156l2.382812 13.898437-12.480469-6.5625c-3-1.578125-6.765624-1.574219-9.761718 0l-12.484375 6.5625 2.382812-13.902343c.582031-3.402344-.542969-6.871094-3.015625-9.28125l-10.101562-9.84375 13.957031-2.027344c3.417969-.496094 6.371094-2.644532 7.898437-5.738282l6.242188-12.648437 6.242188 12.648437c1.527343 3.09375 4.480468 5.242188 7.894531 5.738282l13.960937 2.027344zm0 0"/><path d="m482.019531 109.355469c-6.417969 0-12.550781 2.015625-17.734375 5.828125l-29.03125 21.347656-36.671875-95.1875c-9.523437-24.730469-33.730469-41.34375-60.230469-41.34375h-164.703124c-26.5 0-50.707032 16.613281-60.230469 41.34375l-7.847657 20.371094c-1.488281 3.867187.4375 8.207031 4.300782 9.695312 3.863281 1.488282 8.207031-.4375 9.695312-4.300781l7.847656-20.371094c7.3125-18.984375 25.894532-31.738281 46.234376-31.738281h164.703124c20.34375 0 38.921876 12.753906 46.234376 31.738281l36.816406 95.5625c-.484375.074219-3.742188.347657-4.527344.347657-.011719 0-.027344 0-.042969 0h-321.660156c-.015625 0-.03125 0-.046875 0-1.503906 0-3.039062-.125-4.523438-.347657l18.199219-47.246093c1.488281-3.867188-.4375-8.207032-4.300781-9.699219-3.867188-1.488281-8.207031.4375-9.695312 4.304687l-18.054688 46.871094s-29.023438-21.339844-29.035156-21.347656c-13.152344-9.671875-32.234375-6.757813-41.902344 6.390625-9.789062 13.3125-6.921875 32.109375 6.394531 41.898437l29.214844 21.484375c5.660156 4.164063 11.703125 7.605469 18.023437 10.320313-.464843 3.433594-.847656 6.882812-1.128906 10.34375-21.71875 3.539062-38.390625 22.488281-38.390625 45.140625 0 25.222656 20.519531 45.746093 45.742188 45.746093 2.378906 0 4.746093-.1875 7.082031-.550781 20.953125 49.621094 62.148438 88.957031 113.394531 107.992188-3.449219 3.410156-7.464843 7.78125-11.605469 13.117187-.019531.03125-.042968.0625-.066406.09375-18.292968 24.269532-28.691406 54.085938-28.691406 84.53125 0 4.140625 3.359375 7.5 7.5 7.5h205.4375c4.140625 0 7.5-3.359375 7.5-7.5 0-36.25-14.5625-72.207031-40.375-97.753906 21.300781-7.882812 41.222656-19.355469 58.777344-34.082031 3.175781-2.664063 3.589844-7.394531.925781-10.566407-2.660156-3.171874-7.390625-3.589843-10.566406-.925781-26.890625 22.558594-59.796875 36.886719-94.558594 41.480469-.128906.015625-.261719.03125-.390625.050781-97.921875 12.515625-192.9375-56.574219-205.859375-155.472656-1.917969-14.671875-1.988281-29.636719-.226563-44.328125 1.542969.371094 3.101563.6875 4.664063.972656 1.597656.296875 20.058594 2.632813 20.175781 1.519532-1.550781 12.5625-1.554687 25.304687.027344 37.867187 4.476562 35.574219 34.953125 62.398437 70.894531 62.398437 14.457031 0 28.453125-4.347656 40.46875-12.566406 10.527344-7.203125 27.113281-15.792968 46.324219-15.792968 19.207031 0 35.792969 8.589843 46.324219 15.792968 12.015625 8.21875 26.011719 12.566406 40.46875 12.566406 35.941406 0 66.417969-26.824218 70.894531-62.398437 1.582031-12.5625 1.574219-25.300781.027344-37.867187 8.011718 0 16.035156-.621094 23.84375-2.492188.84375 7.046875 1.269531 14.171875 1.269531 21.273438 0 42.792968-15.554687 84.269531-43.796875 116.796874-2.714844 3.125-2.378906 7.863282.746094 10.582032 3.128906 2.714844 7.867187 2.378906 10.582031-.746094 13.605469-15.671875 24.488281-33.261719 32.386719-52.046875 2.335937.367187 4.703125.550781 7.085937.550781 25.222657 0 45.742188-20.519531 45.742188-45.742187 0-22.652344-16.671875-41.601563-38.390625-45.144531-.28125-3.460938-.664063-6.910157-1.128906-10.339844 6.320312-2.71875 12.363281-6.160156 18.027343-10.324219l29.214844-21.480469c13.3125-9.789062 16.179687-28.585937 6.390625-41.902344-5.628906-7.648437-14.660156-12.214843-24.167969-12.214843zm-268.972656 302.496093v41.886719c-2.664063-2.386719-5.222656-4.882812-7.65625-7.503906-4.351563-4.6875-8.308594-9.753906-11.71875-15.164063-1.664063-2.644531-3.207031-5.371093-4.554687-8.1875 5.503906-6.597656 10.496093-11.15625 13.417968-13.613281 1.066406.292969 8.40625 2.125 10.511719 2.582031zm0 82.339844h-7.113281c-3.519532-4.144531-6.535156-8.703125-9.003906-13.542968-1.578126-3.085938-2.945313-6.292969-4.027344-9.585938l7.40625-8.652344c2.742187 2.597656 11.320312 9.617188 12.738281 10.667969zm-49.929687-16.824218c2.859374-14.519532 8.347656-28.433594 16.207031-40.976563 2.070312 3.515625 9.824219 14.035156 10.648437 15.023437 0 0-11.078125 12.941407-11.078125 12.941407-3.230469 3.765625-1.277343 8.457031.132813 12.523437 2.085937 6.027344 4.882812 11.859375 8.304687 17.246094.015625.023438.027344.042969.042969.066406h-26.375c.328125-5.714844 1.035156-11.34375 2.117188-16.824218zm64.929687-62.847657c2.039063.28125 4.085937.527344 6.132813.75l-.65625 10.996094c-.292969 4.871094 1.597656 9.644531 5.03125 13.023437l-5.785157 54.902344h-4.722656zm94.785156 8.46875c-3.972656 8.257813-9.445312 15.863281-15.621093 22.613281-2.613282 2.855469-5.375 5.554688-8.257813 8.136719v-41.886719c3.527344-.765624 7.042969-1.628906 10.515625-2.582031 2.925781 2.460938 7.914062 7.019531 13.414062 13.609375-.015624.035156-.035156.070313-.050781.109375zm-38.878906 71.203125h-4.722656l-5.695313-54.070312c4.003906-3.398438 6.257813-8.566406 5.941406-13.851563l-.664062-11.109375c1.714844-.195312 3.429688-.402344 5.140625-.640625zm-27.46875-60.40625-7.199219-5c-.523437-.363281-.828125-.984375-.789062-1.625l.644531-10.824218c.289063.011718.570313.011718.855469.023437 4.617187.140625 9.242187.121094 13.855468-.058594l.648438 10.859375c.039062.636719-.261719 1.257813-.785156 1.621094zm-8.632813 60.40625 4.835938-45.886718c1.121094.292968 2.289062.476562 3.449219.476562 1.066406 0 2.148437-.054688 3.203125-.253906l4.808594 45.664062zm51.101563-21.113281c.230469-.171875.453125-.351563.683594-.523437 4.160156-3.117188 8.253906-6.542969 12.058593-10.144532l7.40625 8.652344c-1.472656 4.480469-4.839843 12.824219-11.488281 21.242188-.503906.636718-1.023437 1.269531-1.550781 1.886718h-7.109375zm49.9375 4.316406c1.074219 5.460938 1.78125 11.085938 2.109375 16.796875h-26.371094c.011719-.019531.023438-.042968.039063-.066406 4.199219-6.679688 7.609375-13.988281 9.65625-21.621094.75-2.78125.75-5.851562-1.21875-8.144531l-11.078125-12.941406c.1875-.222657 8.566406-11.492188 10.648437-15.027344 7.851563 12.527344 13.414063 26.484375 16.214844 41.003906zm-281.617187-195.929687c-.53125.027344-1.066407.042968-1.601563.042968-16.953125 0-30.746094-13.792968-30.746094-30.742187 0-14.144531 9.671875-26.136719 22.746094-29.679687v.285156c0 8.355468.542969 16.703125 1.621094 24.988281 1.550781 11.925781 4.210937 23.65625 7.980469 35.105469zm387.054687-60.378906c13.074219 3.539062 22.746094 15.535156 22.746094 29.675781 0 16.953125-13.792969 30.746093-30.742188 30.746093-.539062 0-1.070312-.015624-1.605469-.042968 5.019532-15.246094 8.078126-30.996094 9.15625-47.039063.003907-.03125.003907-.0625.007813-.09375.3125-4.402343.460937-8.828125.4375-13.246093zm-53.949219.28125c0 5.753906-.363281 11.546874-1.074218 17.214843-3.535157 28.089844-27.613282 49.269531-56.011719 49.269531-11.421875 0-22.488281-3.4375-31.996094-9.945312-12.277344-8.398438-31.75-18.410156-54.796875-18.410156-23.042969 0-42.515625 10.011718-54.792969 18.410156-9.511719 6.507812-20.578125 9.945312-32 9.945312-28.398437 0-52.476562-21.179687-56.011719-49.269531-.710937-5.671875-1.074218-11.460937-1.074218-17.214843 0-6.265626.429687-12.558594 1.28125-18.777344h285.195312c.851563 6.21875 1.28125 12.511718 1.28125 18.777344zm90.53125-69.976563-29.214844 21.480469c-12.945312 9.519531-28.789062 14.71875-44.863281 14.71875 0 0-321.652343 0-321.660156 0-16.078125 0-31.914063-5.199219-44.863281-14.71875l-29.214844-21.480469c-6.652344-4.890625-8.082031-14.277344-3.195312-20.929687 4.832031-6.570313 14.367187-8.019532 20.929687-3.191407 0 0 29.214844 21.480469 29.214844 21.480469 7.785156 5.714844 17.429687 8.898438 27.128906 8.898438h321.660156c9.710938 0 19.304688-3.148438 27.125-8.898438 0 0 29.1875-21.460938 29.214844-21.484375 6.589844-4.84375 16.09375-3.382813 20.929687 3.195313 4.890626 6.648437 3.457032 16.039062-3.191406 20.929687zm0 0"/></svg>