<?xml version="1.0" encoding="utf-8"?>
<!-- Generator: Adobe Illustrator 22.0.1, SVG Export Plug-In . SVG Version: 6.00 Build 0)  -->
<svg version="1.1" id="Layer_1" xmlns="http://www.w3.org/2000/svg" xmlns:xlink="http://www.w3.org/1999/xlink" x="0px" y="0px"
	 viewBox="0 0 50 24" style="enable-background:new 0 0 50 24;" xml:space="preserve">
<style type="text/css">
	.st0{fill:#F0713C;}
</style>
<g>
	<g>
		<g>
			<path class="st0" d="M44.5,0.4c-3,0-5.2,2.5-5.2,5.2c0,1,0.2,2,0.7,3l-5.7,5.7c-0.7-0.5-1.7-0.7-3-0.7c-1,0-2.2,0.2-3,1l-5.7-6.2
				c0.5-0.7,0.7-1.7,0.7-3c0-3-2.5-5.2-5.2-5.2s-5.2,2.5-5.2,5.2c0,1,0.2,2,0.7,3l-5.5,5.7c-1-0.5-1.7-0.7-3-0.7
				c-2.7,0-5.2,2.2-5.2,5.2s2.5,5.2,5.2,5.2s5.2-2.5,5.2-5.2c0-1-0.2-2-0.7-3l5.7-5.7c0.7,0.5,1.7,0.7,3,0.7c1,0,2-0.2,3-0.7
				l5.7,5.7c-0.5,0.7-0.7,1.7-0.7,2.7c0,3,2.5,5.2,5.2,5.2s5.2-2.5,5.2-5.2c0-1-0.2-2-0.7-3l5.7-5.7c0.7,0.5,1.7,0.7,3,0.7
				c3,0,5.2-2.5,5.2-5.2C49.8,2.7,47.3,0.4,44.5,0.4z M5.2,21.8c-1.7,0-3-1.5-3-3c0-1.7,1.5-3,3-3c1.7,0,3,1.5,3,3
				C8.5,20.3,7,21.8,5.2,21.8z M18.4,8.6c-1.7,0-3-1.5-3-3c0-1.7,1.5-3,3-3c1.7,0,3,1.5,3,3S19.9,8.6,18.4,8.6z M31.3,21.8
				c-1.7,0-3-1.5-3-3s1.5-3,3-3c1.7,0,3,1.5,3,3C34.6,20.3,33.1,21.8,31.3,21.8z M44.5,8.6c-1.7,0-3-1.5-3-3c0-1.7,1.5-3,3-3
				c1.7,0,3,1.5,3,3S46.3,8.6,44.5,8.6z"/>
		</g>
	</g>
	<g>
		<g>
			<path class="st0" d="M17.2,13.9c-0.5-0.5-1-0.5-1.5,0l-2.2,2c-0.5,0.5-0.5,1.2,0,1.7c0.2,0.2,0.5,0.2,0.7,0.2
				c0.2,0,0.5,0,0.7-0.2l2.2-2.2C17.7,14.9,17.7,14.1,17.2,13.9z"/>
		</g>
	</g>
	<g>
		<g>
			<path class="st0" d="M36.3,6.7c-0.5-0.5-1-0.5-1.5,0l-2.2,2.2c-0.5,0.5-0.5,1,0,1.5c0.2,0.2,0.5,0.2,0.7,0.2c0.2,0,0.5,0,0.7-0.2
				l2.2-2.2C36.8,7.9,36.8,7.1,36.3,6.7z"/>
		</g>
	</g>
</g>
</svg>
