<?xml version="1.0" encoding="utf-8"?>
<!-- Generator: Adobe Illustrator 22.0.1, SVG Export Plug-In . SVG Version: 6.00 Build 0)  -->
<svg version="1.1" id="Layer_1" xmlns="http://www.w3.org/2000/svg" xmlns:xlink="http://www.w3.org/1999/xlink" x="0px" y="0px"
	 viewBox="0 0 50 45" style="enable-background:new 0 0 50 45;" xml:space="preserve">
<style type="text/css">
	.st0{fill:#F0713C;}
</style>
<g>
	<g>
		<path class="st0" d="M50,22.5c0-1-0.5-2-1.5-2.5l-3.8-1.8l3.8-1.8l0,0c1-0.5,1.5-1.5,1.5-2.5s-0.5-2-1.5-2.5l-21-10.9
			c-1.5-0.8-3.5-0.8-5,0l-21,10.6c-1,0.5-1.5,1.5-1.5,2.5s0.5,2,1.5,2.5L5.3,18l-3.8,2c-1,0.5-1.5,1.5-1.5,2.5c0,1,0.5,2,1.5,2.5
			l3.8,1.8l-3.8,1.8c-1,0.8-1.5,1.5-1.5,2.8c0,1,0.5,2,1.5,2.5l21,10.6C23.3,45,24,45,25,45c0.8,0,1.8-0.3,2.5-0.5l21-10.6
			c1-0.5,1.5-1.5,1.5-2.5s-0.5-2-1.5-2.5l-3.8-1.8l3.8-1.8C49.5,24.5,50,23.5,50,22.5z M2.5,14.2c-0.3,0-0.3-0.3-0.3-0.5
			c0,0,0-0.3,0.3-0.5l21-10.6c0.5,0,1-0.3,1.5-0.3s1,0,1.5,0.3l21,10.9c0.3,0,0.3,0.3,0.3,0.5c0,0,0,0.3-0.3,0.5L26.5,25
			c-1,0.5-2,0.5-2.8,0L2.5,14.2z M47.5,30.9c0.3,0,0.3,0.3,0.3,0.5c0,0,0,0.3-0.3,0.5l-21,10.6c-1,0.5-2,0.5-2.8,0L2.5,31.6
			c-0.3,0-0.3-0.3-0.3-0.5c0,0,0-0.3,0.3-0.5l5.3-2.8l14.8,7.8c0.8,0.5,1.5,0.5,2.5,0.5c0.8,0,1.8-0.3,2.5-0.5l14.8-7.3L47.5,30.9z
			 M47.5,23l-21,10.6c-1,0.5-2,0.5-2.8,0L2.5,23c-0.3-0.3-0.3-0.5-0.3-0.5s0-0.3,0.3-0.5l5.3-2.8l14.8,7.6c0.8,0.5,1.5,0.5,2.5,0.5
			c0.8,0,1.8-0.3,2.5-0.5l14.8-7.3l5.3,2.5c0.3,0,0.3,0.3,0.3,0.5C47.8,22.5,47.8,22.8,47.5,23z"/>
	</g>
</g>
</svg>
