<?xml version="1.0" encoding="utf-8"?>
<!-- Generator: Adobe Illustrator 22.0.1, SVG Export Plug-In . SVG Version: 6.00 Build 0)  -->
<svg version="1.1" id="Layer_1" xmlns="http://www.w3.org/2000/svg" xmlns:xlink="http://www.w3.org/1999/xlink" x="0px" y="0px"
	 viewBox="0 0 50 57" style="enable-background:new 0 0 50 57;" xml:space="preserve">
<style type="text/css">
	.st0{fill:#F0713C;}
</style>
<g>
	<g>
		<g>
			<path class="st0" d="M46.3,0H3.5C1.5,0,0,1.5,0,3.3v50.2C0,55.2,1.5,57,3.5,57h43c1.7,0,3.5-1.5,3.5-3.5V3.3
				C49.8,1.5,48.3,0,46.3,0z M2.7,3.3C2.7,3,3,2.5,3.5,2.5h43c0.2,0,0.7,0.2,0.7,0.7v11.7H2.7V3.3z M15.7,54.2H3.2
				c-0.2,0-0.7-0.2-0.7-0.7V37.3h12.9v16.9H15.7z M15.7,34.6H2.7V17.7h12.9C15.7,17.7,15.7,34.6,15.7,34.6z M31.3,54.2H18.4V37.3
				h12.9V54.2z M31.3,34.6H18.4V17.7h12.9V34.6z M47,53.5c0,0.2-0.2,0.7-0.7,0.7H33.8V17.7h12.9v35.8H47z"/>
		</g>
	</g>
	<g>
		<g>
			<path class="st0" d="M12.4,24.6h-2v-2c0-0.7-0.5-1.2-1.2-1.2S8,21.9,8,22.7v2H6c-0.7,0-1.2,0.5-1.2,1.2s0.5,1.2,1.2,1.2h2v2
				c0,0.7,0.5,1.2,1.2,1.2c0.7,0,1.2-0.5,1.2-1.2v-2h2c0.7,0,1.2-0.5,1.2-1.2C13.9,25.4,13.2,24.6,12.4,24.6z"/>
		</g>
	</g>
	<g>
		<g>
			<path class="st0" d="M28.4,24.6h-7c-0.7,0-1.2,0.5-1.2,1.2s0.5,1.2,1.2,1.2h6.7c0.7,0,1.2-0.5,1.2-1.2
				C29.6,25.4,29.1,24.6,28.4,24.6z"/>
		</g>
	</g>
	<g>
		<g>
			<path class="st0" d="M11.2,45.8l1.7-1.7c0.5-0.5,0.5-1.5,0-2c-0.5-0.5-1.5-0.5-2,0l-1.7,1.7l-1.7-1.7c-0.5-0.5-1.5-0.5-2,0
				c-0.5,0.5-0.5,1.5,0,2l1.7,1.7l-1.7,1.7C5,48,5,49,5.5,49.5c0.5,0,0.7,0,1.2,0c0.2,0,0.5,0,0.7-0.2l1.7-1.7l1.7,1.7
				c0.2,0.2,0.5,0.2,0.7,0.2c0.5,0,0.7,0,1-0.2c0.5-0.5,0.5-1.5,0-2L11.2,45.8z"/>
		</g>
	</g>
	<g>
		<g>
			<path class="st0" d="M28.4,42.1c-0.5-0.5-1.5-0.5-2,0l-5.2,5.2c-0.5,0.5-0.5,1.5,0,2c0.5,0.2,0.7,0.2,1.2,0.2s0.7-0.2,1-0.5
				l5.2-5.2C28.9,43.5,28.9,42.8,28.4,42.1z"/>
		</g>
	</g>
	<g>
		<g>
			<circle class="st0" cx="22.4" cy="43.1" r="1.2"/>
		</g>
	</g>
	<g>
		<g>
			<circle class="st0" cx="27.4" cy="48.3" r="1.2"/>
		</g>
	</g>
	<g>
		<g>
			<path class="st0" d="M44,32.1h-7c-0.7,0-1.2,0.5-1.2,1.2s0.5,1.2,1.2,1.2h7c0.7,0,1.2-0.5,1.2-1.2C45.3,32.9,44.8,32.1,44,32.1z"
				/>
		</g>
	</g>
	<g>
		<g>
			<path class="st0" d="M44,36.8h-7c-0.7,0-1.2,0.5-1.2,1.2s0.5,1.2,1.2,1.2h7c0.7,0,1.2-0.5,1.2-1.2C45.3,37.6,44.8,36.8,44,36.8z"
				/>
		</g>
	</g>
</g>
</svg>
