<?xml version="1.0" encoding="utf-8"?>
<!-- Generator: Adobe Illustrator 22.0.1, SVG Export Plug-In . SVG Version: 6.00 Build 0)  -->
<svg version="1.1" id="Layer_1" xmlns="http://www.w3.org/2000/svg" xmlns:xlink="http://www.w3.org/1999/xlink" x="0px" y="0px"
	 viewBox="0 0 50 45" style="enable-background:new 0 0 50 45;" xml:space="preserve">
<style type="text/css">
	.st0{fill:#F0713C;}
</style>
<g>
	<g>
		<g>
			<path class="st0" d="M47,0.3H3c-1.8,0-3,1.3-3,3v30.3c0,1.8,1.3,3,3,3h15v2.3c0,2-1.8,3.8-3.8,3.8H11c-0.5,0-1,0.5-1,1
				s0.5,1.3,1.3,1.3H39c0.8,0,1.3-0.5,1.3-1.3c0-0.8-0.8-1-1.3-1h-3.3c-2,0-3.8-1.8-3.8-3.8v-2.3h15c1.8,0,3-1.3,3-3V3.3
				C50,1.5,48.8,0.3,47,0.3z M19.3,42.5c0.8-1,1.3-2.3,1.3-3.8v-2.3h9.3v2.3c0,1.5,0.5,2.8,1.3,3.8H19.3z M47.8,33.5
				c0,0.5-0.3,0.8-0.7,0.8H3c-0.5,0-0.8-0.3-0.8-0.8v-6h45.5V33.5z M47.8,25.3H2.3v-22c0-0.5,0.5-0.7,0.8-0.7h44
				c0.5,0,0.7,0.3,0.7,0.7V25.3L47.8,25.3z"/>
		</g>
	</g>
	<g>
		<g>
			<circle class="st0" cx="25" cy="31" r="1.3"/>
		</g>
	</g>
	<g>
		<g>
			<path class="st0" d="M27,8.3c-0.5-0.5-1.3-0.5-1.8,0l-8,8c-0.5,0.5-0.5,1.3,0,1.8c0.3,0.3,0.5,0.3,0.8,0.3s0.5,0,0.8-0.2L27,9.8
				C27.5,9.3,27.5,8.5,27,8.3z"/>
		</g>
	</g>
	<g>
		<g>
			<path class="st0" d="M31.8,13c-0.5-0.5-1.3-0.5-1.8,0l-3.3,3.3c-0.5,0.5-0.5,1.3,0,1.8c0.3,0.3,0.5,0.3,0.8,0.3s0.5,0,0.8-0.3
				l3.3-3.3C32.3,14,32.3,13.3,31.8,13z"/>
		</g>
	</g>
</g>
</svg>
